<?xml version="1.0" encoding="utf-8"?>
<svg version="1.1" id="Ebene_1" xmlns="http://www.w3.org/2000/svg" xmlns:xlink="http://www.w3.org/1999/xlink" viewBox="0 0 114.8 28.35" style="enable-background:new 0 0 114.8 28.35;" xml:space="preserve">
    <g>
        <path style="fill:#00B2E6;" 
                d="M15.56,12.89c-2.78,0-4.51-1.11-4.51-4.68V0.19h1.82v7.85c0,2.34,0.67,3.19,2.69,3.19
            c2.08,0,2.75-0.85,2.75-3.19V0.19H20v8.02C20,11.77,18.16,12.89,15.56,12.89z"/>
        <path style="fill:#00B2E6;" d="M28.4,12.89c-3.57,0-5.4-2.23-5.4-6.46C23,1.95,25.22,0,28.34,0c1.1,0,2.45,0.22,3.16,0.61
            c-0.06,0.5-0.2,1.12-0.33,1.63c-0.8-0.41-1.78-0.63-2.77-0.63c-2.19,0-3.45,1.17-3.45,4.85c0,3.36,1.08,4.81,3.47,4.81
            c1.04,0,2.13-0.3,2.99-0.84c0.15,0.5,0.28,1.06,0.33,1.63C30.83,12.63,29.49,12.89,28.4,12.89z"/>
        <path style="fill:#00B2E6;" d="M41.95,12.7V6.93h-5.44v5.77h-1.82V0.19h1.82v5.13h5.44V0.19h1.82V12.7H41.95z"/>
        <path style="fill:#00B2E6;" d="M73.98,12.89c-3.75,0-5.57-2.23-5.57-6.46c0-4.49,2.28-6.43,5.68-6.43c1.13,0,2.43,0.19,3.32,0.6
            c-0.04,0.48-0.21,1.15-0.35,1.65c-0.72-0.37-1.91-0.63-2.9-0.63c-2.38,0-3.81,1.02-3.81,4.88c0,3.64,1.34,4.77,3.66,4.77
            c0.54,0,1.36-0.09,1.88-0.32v-3.1h-2.3c-0.11-0.46-0.17-1.08-0.17-1.58h4.25v5.79C76.82,12.52,75.32,12.89,73.98,12.89z"/>
        <path style="fill:#00B2E6;" d="M88.62,12.7h-7.15V0.19h7c0,0.48-0.06,1.1-0.15,1.6h-5.03v3.6h3.81v1.58h-3.81v4.14h5.48
            C88.77,11.6,88.71,12.18,88.62,12.7z"/>
        <path style="fill:#00B2E6;" d="M98.62,12.7l-0.98-1.95c-0.71-1.41-1.45-2.6-2.08-3.19h-1.82v5.14h-1.78V0.32c1.41-0.17,2.52-0.26,3.58-0.26
            c2.23,0,4.08,0.95,4.08,3.6c0,1.73-1.06,2.95-2.54,3.36c0.69,0.58,1.45,1.56,2.12,2.84l1.46,2.84H98.62z M95.47,1.52
            c-0.54,0-1.24,0.05-1.73,0.11v4.49h1.52c1.6,0,2.53-0.74,2.53-2.38C97.79,2.17,96.92,1.52,95.47,1.52z"/>
        <path style="fill:#00B2E6;" d="M59.44,28.34H52.7V15.83h1.82v10.9h5.07C59.59,27.27,59.54,27.81,59.44,28.34z"/>
        <path style="fill:#00B2E6;" d="M69.96,28.34v-5.77h-5.44v5.77H62.7V15.83h1.82v5.12h5.44v-5.12h1.82v12.51H69.96z"/>
        <path style="fill:#00B2E6;" d="M83.19,28.34h-7.15V15.83h7c0,0.48-0.06,1.1-0.15,1.6h-5.03v3.6h3.81v1.58h-3.81v4.14h5.48
            C83.34,27.25,83.28,27.83,83.19,28.34z"/>
        <path style="fill:#00B2E6;" d="M93.69,28.34h-6.74V15.83h1.82v10.9h5.07C93.84,27.27,93.78,27.81,93.69,28.34z"/>
        <path style="fill:#00B2E6;" d="M112.98,28.34V15.83h1.82v12.51H112.98z"/>
        <path style="fill:#00B2E6;" d="M49.51,12.7h-1.83L50.8,0.19h1.82L49.51,12.7z"/>
        <path style="fill:#00B2E6;" d="M45.62,28.35h-1.83l3.12-12.52h1.82L45.62,28.35z"/>
        <path style="fill:#00B2E6;" d="M3.68,12.87c-0.95,0-2.33-0.02-3.68-0.17V0.24c1.08-0.15,2.41-0.18,3.49-0.18c2.47,0,4.09,0.93,4.09,3.25
            c0,1.37-0.8,2.36-1.82,2.8v0.13c1.43,0.41,2.28,1.37,2.28,2.93C8.04,11.83,6.07,12.87,3.68,12.87z M3.56,1.47
            c-0.52,0-1.06,0.01-1.8,0.07v4.09h1.99c1.26,0,2.04-0.8,2.04-2.17C5.79,2.15,5.01,1.47,3.56,1.47z M3.86,6.98h-2.1v4.33
            c0.72,0.07,1.39,0.11,1.88,0.11c1.67,0,2.51-0.83,2.51-2.36C6.15,7.71,5.25,6.98,3.86,6.98z"/>
        <path style="fill:#00B2E6;" d="M63.47,0.19l0,9.38h-0.11l-1.62-2.85l-0.51-0.88l0,0L57.9,0.19c-0.52,0-1.89,0-1.89,0V12.7h1.63V2.99h0.11
            l0.21,0.37c0,0.01,1.8,3.17,1.8,3.17l3.63,6.18h1.71V0.19H63.47z"/>
        <path style="fill:#00B2E6;" d="M40.72,15.83l-1.79,8.27l-0.36,1.61h-0.12l-0.51-1.9l-2.15-7.99h-1.63l-2.27,8.04h0l-0.49,1.84h-0.13
            l-0.39-1.89l0,0l-1.65-7.99h-1.74c0.69,4.05,1.71,8.58,2.73,12.51h1.89l2.17-7.78l0,0l0.54-1.87h0.09c0,0,0.22,0.8,0.23,0.83
            l2.49,8.82h1.89c1.04-4.01,2.08-8.47,2.82-12.51H40.72z"/>
        <path style="fill:#00B2E6;" d="M108.12,15.83h-2.08l-2.83,8.95l-0.3,0.94h-0.12c0,0-0.25-0.8-0.26-0.82l-2.9-9.06H97.6
            c-0.48,4.2-0.9,8.38-1.2,12.52h1.56l0.75-8.28l0.08-1.36h0.12l0.42,1.39l2.62,8.24h1.69l2.63-8.36l0.41-1.28h0.12l0.09,1.73
            l0.62,7.9h1.74C108.98,24.24,108.59,20.01,108.12,15.83z"/>
    </g>
</svg>
